<svg xmlns="http://www.w3.org/2000/svg" width="16.001" height="15.999" viewBox="0 0 16.001 15.999">
  <path id="head_recherche" d="M6.458,12.721a6.2,6.2,0,0,0,3.151-.852l3.851,3.848a.965.965,0,0,0,1.364,0l.956-.954c.373-.376.235-.85-.14-1.227L11.815,9.71a6.249,6.249,0,0,0,.908-3.254A6.6,6.6,0,0,0,6.264,0,6.263,6.263,0,0,0,0,6.264a6.6,6.6,0,0,0,6.458,6.458M6.264,1.926a4.676,4.676,0,0,1,4.531,4.53,4.338,4.338,0,0,1-4.337,4.339A4.673,4.673,0,0,1,1.93,6.264,4.334,4.334,0,0,1,6.264,1.926" fill="#fff"/>
</svg>
