<svg xmlns="http://www.w3.org/2000/svg" width="13.91" height="13.834" viewBox="0 0 13.91 13.834">
  <g id="footer_ist_off" transform="translate(-132.223 -229.085)">
    <path id="Tracé_29" data-name="Tracé 29" d="M363.359,26.936a3.04,3.04,0,0,0-1.077-2.142,3.237,3.237,0,0,0-2.136-.745c-1.225-.013-2.451,0-3.677,0v0c-.385,0-.771,0-1.156,0-1,.011-2.013-.033-3.01.054a2.843,2.843,0,0,0-2.582,1.97,4.037,4.037,0,0,0-.22,1.395c0,1.807-.01,3.614,0,5.42a19.405,19.405,0,0,0,.082,2.363,2.785,2.785,0,0,0,1.815,2.349,4.063,4.063,0,0,0,1.536.275c1.814,0,3.627.008,5.44,0a19.876,19.876,0,0,0,2.288-.076,2.95,2.95,0,0,0,2.374-1.671,3.794,3.794,0,0,0,.368-1.76c0-1.7,0-3.4,0-5.1,0-.777.016-1.556-.044-2.329" transform="translate(-217.273 205.044)" fill="#fff"/>
    <path id="Tracé_30" data-name="Tracé 30" d="M361.034,39.874a4.382,4.382,0,1,1,4.4-4.37,4.375,4.375,0,0,1-4.4,4.37" transform="translate(-222.056 200.476)"/>
    <path id="Tracé_31" data-name="Tracé 31" d="M380.13,29.991a.99.99,0,1,1,.01-1.979.99.99,0,1,1-.01,1.979" transform="translate(-236.581 202.478)"/>
    <path id="Tracé_32" data-name="Tracé 32" d="M363.954,35.556a2.8,2.8,0,1,0,2.8,2.8,2.81,2.81,0,0,0-2.8-2.8" transform="translate(-224.953 197.602)" fill="#fff"/>
  </g>
</svg>
