<svg xmlns="http://www.w3.org/2000/svg" width="139.867" height="80.471" viewBox="0 0 139.867 80.471">
  <g id="mob_logo" transform="translate(-86.91 -543.038)">
    <path id="Ligne_13" data-name="Ligne 13" d="M-.256,76.246l-.2-.089L33.565-.2l.2.089Z" transform="translate(88.027 543.902)" fill="#fff" stroke="#fff" stroke-width="1"/>
    <path id="Ligne_14" data-name="Ligne 14" d="M-.256,76.12l-.2-.089L33.509-.2l.2.089Z" transform="translate(91.056 545.21)" fill="#fff" stroke="#fff" stroke-width="1"/>
    <path id="Ligne_15" data-name="Ligne 15" d="M-5.058,42.28l-4.076-1.816L10.707-4.07l4.076,1.816Z" transform="translate(100.685 579.049)" fill="#fff"/>
    <path id="Ligne_16" data-name="Ligne 16" d="M-5.059,25.909l-4.076-1.816L3.414-4.07,7.489-2.254Z" transform="translate(113.036 548.595)" fill="#fff"/>
    <path id="Tracé_7" data-name="Tracé 7" d="M45.7,29.058A15.114,15.114,0,0,1,39,23.234,15.228,15.228,0,0,1,36.7,14.893,15.164,15.164,0,0,1,43.836,2.309,15.228,15.228,0,0,1,52.177,0a15.09,15.09,0,0,1,5.885,1.315l-.089.2A14.894,14.894,0,0,0,49.29.448a15.009,15.009,0,0,0-7.632,3.808A14.945,14.945,0,0,0,37.142,17.78a15.008,15.008,0,0,0,3.808,7.632,14.871,14.871,0,0,0,4.842,3.445Z" transform="translate(58.938 543.538)" fill="#fff" stroke="#fff" stroke-width="1"/>
    <path id="Tracé_8" data-name="Tracé 8" d="M46.057,198.476q-.226,0-.451,0a23.9,23.9,0,0,1-4.689-.557,24.2,24.2,0,0,1-4.621-1.524l.089-.2a23.979,23.979,0,0,0,4.579,1.511,23.672,23.672,0,0,0,9.232.192,23.873,23.873,0,0,0,12.139-6.056,23.682,23.682,0,0,0,3.085-3.517,24.033,24.033,0,0,0,3.9-8.764,23.671,23.671,0,0,0,.192-9.232,23.872,23.872,0,0,0-6.056-12.139,23.684,23.684,0,0,0-3.517-3.085,23.978,23.978,0,0,0-4.185-2.394l.089-.2a24.2,24.2,0,0,1,4.223,2.416,23.891,23.891,0,0,1,6.375,6.8,24.092,24.092,0,0,1,3.649,13.2,23.9,23.9,0,0,1-.557,4.689,24.253,24.253,0,0,1-3.941,8.844,23.892,23.892,0,0,1-6.8,6.375,24.1,24.1,0,0,1-12.745,3.653Z" transform="translate(59.247 424.533)" fill="#fff" stroke="#fff" stroke-width="1"/>
    <path id="Tracé_3343" data-name="Tracé 3343" d="M8.6,6.8H1.054V5.95A12.283,12.283,0,0,1,3.3,5.134V-15.028L1.054-15.3v-.884a14.357,14.357,0,0,1,2.227-.765q1.139-.289,2.227-.459h.85V-13.6h.034a6.8,6.8,0,0,1,1.9-2.771,4.775,4.775,0,0,1,3.2-1.037A5.76,5.76,0,0,1,16.184-15.4Q17.85-13.4,17.85-8.874A12.553,12.553,0,0,1,17.289-5a8.255,8.255,0,0,1-1.6,2.924A7.017,7.017,0,0,1,13.175-.238,8.111,8.111,0,0,1,9.894.408,9.9,9.9,0,0,1,7.922.255,8.2,8.2,0,0,1,6.358-.272V5.134a5.4,5.4,0,0,1,1.088.255A5.958,5.958,0,0,1,8.6,5.95Zm1.8-22.1a3.457,3.457,0,0,0-2.652,1.054,6.062,6.062,0,0,0-1.394,2.89v9.52a4.813,4.813,0,0,0,1.377.561,8.633,8.633,0,0,0,1.989.187,3.667,3.667,0,0,0,2.023-.578A4.835,4.835,0,0,0,13.277-3.3a8.812,8.812,0,0,0,.969-2.465,13.282,13.282,0,0,0,.34-3.111,13.888,13.888,0,0,0-.221-2.567,6.559,6.559,0,0,0-.714-2.04,3.593,3.593,0,0,0-1.292-1.343A3.757,3.757,0,0,0,10.4-15.3ZM28.186,0H20.638V-.85a7.233,7.233,0,0,1,1.054-.459q.544-.187,1.19-.357V-15.028L20.638-15.3v-.884A16.939,16.939,0,0,1,22.78-16.9q1.156-.306,2.312-.51h.85V-1.666q.68.17,1.224.357a5.946,5.946,0,0,1,1.02.459Zm-5.95-22.78a1.884,1.884,0,0,1,.595-1.462,2.252,2.252,0,0,1,1.581-.544,2.19,2.19,0,0,1,1.564.544,1.912,1.912,0,0,1,.578,1.462,1.858,1.858,0,0,1-.578,1.445,2.233,2.233,0,0,1-1.564.527,2.3,2.3,0,0,1-1.581-.527A1.831,1.831,0,0,1,22.236-22.78ZM44-2.38A4.932,4.932,0,0,1,42.007-.391a6.287,6.287,0,0,1-3.213.8,8.86,8.86,0,0,1-3.485-.629,6.475,6.475,0,0,1-2.465-1.8,7.793,7.793,0,0,1-1.479-2.822A12.729,12.729,0,0,1,30.872-8.5q0-4.318,2.108-6.613a7.416,7.416,0,0,1,5.746-2.3,13.865,13.865,0,0,1,2.975.289,9.122,9.122,0,0,1,2.227.765,25.175,25.175,0,0,1-.374,2.516,10.918,10.918,0,0,1-.68,2.312h-.918l-1.428-4.046a1.718,1.718,0,0,0-.544-.255,4.265,4.265,0,0,0-1.02-.085,4.193,4.193,0,0,0-3.57,1.683q-1.258,1.683-1.258,5.7a8.94,8.94,0,0,0,.357,2.516,6.738,6.738,0,0,0,1.088,2.193,5.4,5.4,0,0,0,1.836,1.547,5.461,5.461,0,0,0,2.567.578,5.765,5.765,0,0,0,2.074-.34,5.832,5.832,0,0,0,1.5-.816ZM59.262-4.454q0,.748.034,1.292t.068,1.156l2.346.34v.714a12.588,12.588,0,0,1-1.887.782,14.689,14.689,0,0,1-1.989.51h-.85a5.225,5.225,0,0,1-.408-1.717q-.068-.935-.1-2.057H56.3a4.706,4.706,0,0,1-.527,1.377,4.626,4.626,0,0,1-1.02,1.241,5.179,5.179,0,0,1-1.479.884,5.185,5.185,0,0,1-1.938.34A4.68,4.68,0,0,1,47.957-.85a4.366,4.366,0,0,1-1.309-3.3,4.759,4.759,0,0,1,.629-2.567A4.265,4.265,0,0,1,49.13-8.3a10.6,10.6,0,0,1,3.026-.833q1.8-.255,4.182-.391a19.53,19.53,0,0,0,.085-2.635,6.325,6.325,0,0,0-.374-2.006,2.805,2.805,0,0,0-.952-1.292,2.732,2.732,0,0,0-1.649-.459q-.476,0-1.071.051a3.954,3.954,0,0,0-1.173.289l-1.6,4.08h-.884q-.34-1.02-.6-2.108a13.066,13.066,0,0,1-.323-2.142,11.493,11.493,0,0,1,2.873-1.224,13.058,13.058,0,0,1,3.519-.442,6.524,6.524,0,0,1,2.771.493,3.917,3.917,0,0,1,1.581,1.275,4.334,4.334,0,0,1,.714,1.734,10.811,10.811,0,0,1,.17,1.9q0,2.04-.085,3.927T59.262-4.454ZM52.7-1.7a3.166,3.166,0,0,0,1.5-.34,4.025,4.025,0,0,0,1.088-.816A4.942,4.942,0,0,0,56-3.825a4.464,4.464,0,0,0,.374-.833v-3.57a20.853,20.853,0,0,0-3.23.2,5.432,5.432,0,0,0-1.972.646,2.355,2.355,0,0,0-.986,1.105,3.958,3.958,0,0,0-.272,1.513A3.183,3.183,0,0,0,50.66-2.5,2.659,2.659,0,0,0,52.7-1.7ZM70.788-14.45a3.974,3.974,0,0,0-.935.833,5.7,5.7,0,0,0-1,1.853v10.1a8.2,8.2,0,0,1,1.36.255,6.278,6.278,0,0,1,1.36.561V0H63.546V-.85A6.231,6.231,0,0,1,64.7-1.36q.544-.17,1.088-.306V-15.028L63.546-15.3v-.884a14.152,14.152,0,0,1,2.244-.765q1.156-.289,2.21-.459h.85v3.6h.136a6.065,6.065,0,0,1,.867-1.36,7.371,7.371,0,0,1,1.292-1.224,5.655,5.655,0,0,1,1.6-.833,4.135,4.135,0,0,1,1.785-.187,6.93,6.93,0,0,1,.425.969q.187.527.357,1.1v.884ZM76.364-8.5a11.755,11.755,0,0,1,.561-3.791,7.687,7.687,0,0,1,1.615-2.788,6.924,6.924,0,0,1,2.533-1.734,8.717,8.717,0,0,1,3.281-.6,9.318,9.318,0,0,1,3.638.646,6.408,6.408,0,0,1,2.5,1.819,7.551,7.551,0,0,1,1.428,2.805A13.425,13.425,0,0,1,92.378-8.5,9.26,9.26,0,0,1,90.2-1.9,7.648,7.648,0,0,1,84.354.408a9.084,9.084,0,0,1-3.536-.629,6.449,6.449,0,0,1-2.482-1.8,7.793,7.793,0,0,1-1.479-2.822A12.729,12.729,0,0,1,76.364-8.5Zm3.264,0a13.883,13.883,0,0,0,.289,2.89,7.245,7.245,0,0,0,.918,2.363,4.592,4.592,0,0,0,1.649,1.581,4.889,4.889,0,0,0,2.448.578,3.489,3.489,0,0,0,3.009-1.8A10.5,10.5,0,0,0,89.114-8.5a13.814,13.814,0,0,0-.289-2.907,7.5,7.5,0,0,0-.9-2.346,4.641,4.641,0,0,0-1.564-1.581,4.307,4.307,0,0,0-2.278-.578,3.742,3.742,0,0,0-3.23,1.8Q79.628-12.308,79.628-8.5Z" transform="translate(134.399 606.744)" fill="#fff"/>
  </g>
</svg>
